<svg width="153" height="25" viewBox="0 0 153 25" fill="none" xmlns="http://www.w3.org/2000/svg">
<path d="M11.5488 2.92681C11.8482 2.00549 13.1516 2.0055 13.4509 2.92681L15.0818 7.94606C15.2157 8.35808 15.5996 8.63704 16.0328 8.63704H21.3104C22.2791 8.63704 22.6819 9.87666 21.8982 10.4461L17.6286 13.5481C17.2781 13.8028 17.1314 14.2541 17.2653 14.6662L18.8961 19.6854C19.1955 20.6067 18.141 21.3729 17.3573 20.8035L13.0877 17.7014C12.7372 17.4467 12.2626 17.4467 11.9121 17.7014L7.64246 20.8035C6.85875 21.3729 5.80427 20.6067 6.10362 19.6854L7.73447 14.6662C7.86835 14.2541 7.72169 13.8028 7.3712 13.5481L3.10157 10.4461C2.31785 9.87666 2.72063 8.63704 3.68936 8.63704H8.96691C9.40014 8.63704 9.78409 8.35808 9.91797 7.94606L11.5488 2.92681Z" fill="#F2C94C"/>
<path d="M36.5488 2.92681C36.8482 2.00549 38.1516 2.0055 38.4509 2.92681L40.0818 7.94606C40.2157 8.35808 40.5996 8.63704 41.0328 8.63704H46.3104C47.2791 8.63704 47.6819 9.87666 46.8982 10.4461L42.6286 13.5481C42.2781 13.8028 42.1314 14.2541 42.2653 14.6662L43.8961 19.6854C44.1955 20.6067 43.141 21.3729 42.3573 20.8035L38.0877 17.7014C37.7372 17.4467 37.2626 17.4467 36.9121 17.7014L32.6425 20.8035C31.8587 21.3729 30.8043 20.6067 31.1036 19.6854L32.7345 14.6662C32.8683 14.2541 32.7217 13.8028 32.3712 13.5481L28.1016 10.4461C27.3179 9.87666 27.7206 8.63704 28.6894 8.63704H33.9669C34.4001 8.63704 34.7841 8.35808 34.918 7.94606L36.5488 2.92681Z" fill="#F2C94C"/>
<path d="M61.5488 2.92681C61.8482 2.00549 63.1516 2.0055 63.4509 2.92681L65.0818 7.94606C65.2157 8.35808 65.5996 8.63704 66.0328 8.63704H71.3104C72.2791 8.63704 72.6819 9.87666 71.8982 10.4461L67.6286 13.5481C67.2781 13.8028 67.1314 14.2541 67.2653 14.6662L68.8961 19.6854C69.1955 20.6067 68.141 21.3729 67.3573 20.8035L63.0877 17.7014C62.7372 17.4467 62.2626 17.4467 61.9121 17.7014L57.6425 20.8035C56.8587 21.3729 55.8043 20.6067 56.1036 19.6854L57.7345 14.6662C57.8683 14.2541 57.7217 13.8028 57.3712 13.5481L53.1016 10.4461C52.3179 9.87666 52.7206 8.63704 53.6894 8.63704H58.9669C59.4001 8.63704 59.7841 8.35808 59.918 7.94606L61.5488 2.92681Z" fill="#F2C94C"/>
<path d="M86.5488 2.92681C86.8482 2.00549 88.1516 2.0055 88.4509 2.92681L90.0818 7.94606C90.2157 8.35808 90.5996 8.63704 91.0328 8.63704H96.3104C97.2791 8.63704 97.6819 9.87666 96.8982 10.4461L92.6286 13.5481C92.2781 13.8028 92.1314 14.2541 92.2653 14.6662L93.8961 19.6854C94.1955 20.6067 93.141 21.3729 92.3573 20.8035L88.0877 17.7014C87.7372 17.4467 87.2626 17.4467 86.9121 17.7014L82.6425 20.8035C81.8587 21.3729 80.8043 20.6067 81.1036 19.6854L82.7345 14.6662C82.8683 14.2541 82.7217 13.8028 82.3712 13.5481L78.1016 10.4461C77.3179 9.87666 77.7206 8.63704 78.6894 8.63704H83.9669C84.4001 8.63704 84.7841 8.35808 84.918 7.94606L86.5488 2.92681Z" fill="#F2C94C"/>
<path d="M111.549 2.92681C111.848 2.00549 113.152 2.0055 113.451 2.92681L115.082 7.94606C115.216 8.35808 115.6 8.63704 116.033 8.63704H121.31C122.279 8.63704 122.682 9.87666 121.898 10.4461L117.629 13.5481C117.278 13.8028 117.131 14.2541 117.265 14.6662L118.896 19.6854C119.195 20.6067 118.141 21.3729 117.357 20.8035L113.088 17.7014C112.737 17.4467 112.263 17.4467 111.912 17.7014L107.642 20.8035C106.859 21.3729 105.804 20.6067 106.104 19.6854L107.734 14.6662C107.868 14.2541 107.722 13.8028 107.371 13.5481L103.102 10.4461C102.318 9.87666 102.721 8.63704 103.689 8.63704H108.967C109.4 8.63704 109.784 8.35808 109.918 7.94606L111.549 2.92681Z" fill="#F2C94C"/>
<path d="M132.968 11.2638C134.568 11.2638 135.741 11.5678 136.488 12.1758C137.245 12.7731 137.624 13.5944 137.624 14.6398C137.624 15.3011 137.464 15.8984 137.144 16.4318C136.835 16.9544 136.36 17.3704 135.72 17.6798C135.091 17.9784 134.312 18.1278 133.384 18.1278C132.595 18.1278 131.832 18.0104 131.096 17.7758C130.36 17.5304 129.752 17.1944 129.272 16.7678L130.008 15.5038C130.392 15.8664 130.883 16.1598 131.48 16.3838C132.077 16.5971 132.707 16.7038 133.368 16.7038C134.211 16.7038 134.861 16.5278 135.32 16.1758C135.789 15.8131 136.024 15.3224 136.024 14.7038C136.024 14.0318 135.768 13.5251 135.256 13.1838C134.744 12.8318 133.869 12.6558 132.632 12.6558H130.088L130.68 6.79976H137V8.19176H132.024L131.72 11.2638H132.968ZM140.011 18.0958C139.713 18.0958 139.457 17.9944 139.243 17.7918C139.03 17.5784 138.923 17.3118 138.923 16.9918C138.923 16.6824 139.03 16.4264 139.243 16.2238C139.457 16.0104 139.713 15.9038 140.011 15.9038C140.31 15.9038 140.561 16.0051 140.763 16.2078C140.966 16.4104 141.067 16.6718 141.067 16.9918C141.067 17.3118 140.961 17.5784 140.747 17.7918C140.545 17.9944 140.299 18.0958 140.011 18.0958ZM146.969 18.1278C146.084 18.1278 145.294 17.9038 144.601 17.4558C143.918 16.9971 143.38 16.3358 142.985 15.4718C142.59 14.6078 142.393 13.5838 142.393 12.3998C142.393 11.2158 142.59 10.1918 142.985 9.32775C143.38 8.46376 143.918 7.80776 144.601 7.35976C145.294 6.90109 146.084 6.67176 146.969 6.67176C147.844 6.67176 148.622 6.90109 149.305 7.35976C149.998 7.80776 150.542 8.46376 150.937 9.32775C151.332 10.1918 151.529 11.2158 151.529 12.3998C151.529 13.5838 151.332 14.6078 150.937 15.4718C150.542 16.3358 149.998 16.9971 149.305 17.4558C148.622 17.9038 147.844 18.1278 146.969 18.1278ZM146.969 16.7038C147.865 16.7038 148.58 16.3358 149.113 15.5998C149.657 14.8638 149.929 13.7971 149.929 12.3998C149.929 11.0024 149.657 9.93576 149.113 9.19976C148.58 8.46376 147.865 8.09576 146.969 8.09576C146.062 8.09576 145.337 8.46376 144.793 9.19976C144.26 9.93576 143.993 11.0024 143.993 12.3998C143.993 13.7971 144.26 14.8638 144.793 15.5998C145.337 16.3358 146.062 16.7038 146.969 16.7038Z" fill="#333333"/>
</svg>
