<svg width="21" height="19" viewBox="0 0 21 19" fill="none" xmlns="http://www.w3.org/2000/svg">
<path fill-rule="evenodd" clip-rule="evenodd" d="M11.6503 2.04028L13.5538 5.57151C13.7404 5.91818 14.1005 6.15856 14.5181 6.21418L18.7764 6.78335C19.8285 6.9244 20.2472 8.10843 19.4857 8.78687L16.4064 11.5344C16.1038 11.8046 15.9661 12.1929 16.0377 12.5744L16.7644 16.4533C16.9433 17.4128 15.8435 18.1449 14.9031 17.6909L11.0971 15.8583C10.724 15.6785 10.2771 15.6785 9.9029 15.8583L6.09688 17.6909C5.15649 18.1449 4.05666 17.4128 4.23671 16.4533L4.96234 12.5744C5.03393 12.1929 4.89618 11.8046 4.59356 11.5344L1.51425 8.78687C0.752828 8.10843 1.1715 6.9244 2.22361 6.78335L6.48193 6.21418C6.89952 6.15856 7.2607 5.91818 7.44726 5.57151L9.34973 2.04028C9.82047 1.16716 11.1795 1.16716 11.6503 2.04028Z" fill="white" stroke="#27AE60" stroke-width="2" stroke-linecap="round" stroke-linejoin="round"/>
</svg>
